<svg id="_0250_money_transfer" data-name="0250_money_transfer" xmlns="http://www.w3.org/2000/svg" viewBox="0 0 500 500" data-imageid="money-transfer-78" imageName="Money Transfer" class="illustrations_image" style="width: 151px;"><defs><style>.cls-1_money-transfer-78{fill:#ffc9b0;}.cls-2_money-transfer-78{fill:#093f68;}.cls-3_money-transfer-78{fill:#70cc40;}.cls-4_money-transfer-78{fill:#fff;}.cls-5_money-transfer-78{fill:#68e1fd;}</style></defs><g id="hand-1_money-transfer-78"><path class="cls-1_money-transfer-78" d="M131.57,200.49a119.25,119.25,0,0,0,35.54-5.25c18.64-5.82,35.53-22.72,40.78-24.46S290,194.1,305.76,185.64s10.49-23-3.5-28.85-85.63-36.12-101.95-37.86-68.74,15.73-68.74,15.73Z"/><path class="cls-2_money-transfer-78" d="M133,202.34c-.89,0-1.42,0-1.53,0a1.83,1.83,0,0,1-1.78-1.83V134.66a1.84,1.84,0,0,1,1.26-1.74c2.15-.72,53-17.58,69.52-15.82,15.58,1.67,78.58,28,99.28,36.67L303,155.1c8.45,3.52,13.9,10,14.24,16.81.3,6.07-3.46,11.52-10.58,15.35-10.28,5.52-41.42-1.48-75.15-9.79-10.48-2.58-21.31-5.26-23.08-4.93-1.44.48-4.69,2.91-8.45,5.74-7.85,5.89-19.71,14.78-32.3,18.71A121.84,121.84,0,0,1,133,202.34ZM133.4,136v62.67a120.07,120.07,0,0,0,33.16-5.17c12-3.74,23.54-12.41,31.19-18.15,4.35-3.26,7.49-5.62,9.56-6.31s7.81.63,25.05,4.87c23.43,5.78,62.65,15.44,72.53,10.12,5.81-3.12,8.88-7.35,8.65-11.93-.26-5.34-5-10.68-12-13.6l-3.18-1.33c-55.22-23.09-88.28-35.34-98.26-36.41C185.82,119.22,141.45,133.36,133.4,136Z"/><rect class="cls-3_money-transfer-78" x="217.67" y="90.4" width="105" height="220.21" transform="translate(345.07 -127.5) rotate(66.28)"/><path class="cls-2_money-transfer-78" d="M190.48,294.69a1.84,1.84,0,0,1-1.68-1.1l-42.23-96.13a1.79,1.79,0,0,1,0-1.4,1.83,1.83,0,0,1,1-1l201.61-88.57a1.85,1.85,0,0,1,2.42.94l42.24,96.13a1.85,1.85,0,0,1-.95,2.42L191.22,294.54A1.92,1.92,0,0,1,190.48,294.69Zm-39.82-97,40.76,92.77,198.26-87.1-40.76-92.77Z"/><path class="cls-3_money-transfer-78" d="M348.37,139.44,368,184.21a14.63,14.63,0,0,0-7.51,19.28,11.28,11.28,0,0,0,.55,1.1L211.69,270.22a10.68,10.68,0,0,0-.44-1.14A14.62,14.62,0,0,0,192,261.57L172.3,216.8a14.64,14.64,0,0,0,7.51-19.29c-.17-.38-.34-.74-.53-1.1l149.37-65.63a10.06,10.06,0,0,0,.44,1.15A14.63,14.63,0,0,0,348.37,139.44Z"/><path class="cls-2_money-transfer-78" d="M211.69,272.06a1.91,1.91,0,0,1-.77-.17,1.83,1.83,0,0,1-1-1.12,8.56,8.56,0,0,0-.36-1,12.8,12.8,0,0,0-16.86-6.56,1.86,1.86,0,0,1-1.41,0,1.78,1.78,0,0,1-1-1l-19.67-44.77a1.82,1.82,0,0,1,.94-2.41,12.82,12.82,0,0,0,6.57-16.87c-.15-.34-.3-.66-.47-1a1.82,1.82,0,0,1-.12-1.46,1.84,1.84,0,0,1,1-1.08L327.92,129.1a1.86,1.86,0,0,1,1.5,0,1.84,1.84,0,0,1,1,1.14,8.26,8.26,0,0,0,.36.94,12.8,12.8,0,0,0,16.87,6.57,1.85,1.85,0,0,1,2.42.94l19.66,44.77a1.83,1.83,0,0,1-.94,2.42,12.8,12.8,0,0,0-6.57,16.87,9.44,9.44,0,0,0,.45.9,1.82,1.82,0,0,1,.17,1.49,1.84,1.84,0,0,1-1,1.12L212.43,271.91A1.92,1.92,0,0,1,211.69,272.06Zm-13.86-13.57a16.49,16.49,0,0,1,14.85,9.3l145.94-64.12a16.46,16.46,0,0,1,7-20.31l-18.27-41.59a16.47,16.47,0,0,1-19.72-8.55L181.73,197.34a16.52,16.52,0,0,1-7,20.31L193,259.24A16.48,16.48,0,0,1,197.83,258.49Z"/><path class="cls-2_money-transfer-78" d="M277.47,226.86l-1.72-3.92c-1.6.24-3.12.55-4.66.68a13.19,13.19,0,0,1-8.49-2,12.91,12.91,0,0,1-4.76-5.83l7.66-3.37c1.61,2.7,3.89,4.13,7.19,3.62l-4.57-10.4c-1.73.23-3.45.48-5.18.67a11.74,11.74,0,0,1-5.57-.58,9.59,9.59,0,0,1-4.59-3.74,13.45,13.45,0,0,1-2.45-6.88,12.13,12.13,0,0,1,3.79-9.62,36.62,36.62,0,0,1,3.44-2.71l.42-.3-2.28-5.19,7.16-3.15.22.51c.66,1.48,1.32,3,1.95,4.46.16.37.33.43.71.35a16.49,16.49,0,0,1,8.05.18,11.83,11.83,0,0,1,6.73,5c.43.65.8,1.35,1.23,2.06L274,190.13a6,6,0,0,0-5.55-3.46l4.26,9.7c.29-.05.61-.1.93-.17a30.23,30.23,0,0,1,7-.73,9.65,9.65,0,0,1,8.53,5.06,12.66,12.66,0,0,1,1.7,9.34,12.85,12.85,0,0,1-3.9,6.82c-1.22,1.13-2.57,2.11-3.93,3.22l1.67,3.8ZM276,204l4,9a7.14,7.14,0,0,0,2.56-2.79c1.06-2.1.16-5.75-2.94-6.17A30.13,30.13,0,0,0,276,204Zm-11.29-6.08-3.83-8.72a27.79,27.79,0,0,0-2.12,2.59c-1.41,2.2-.11,6,3,6.19C262.71,198,263.68,197.92,264.71,197.89Z"/><rect class="cls-4_money-transfer-78" x="112.92" y="128.25" width="18.65" height="83.89"/><path class="cls-2_money-transfer-78" d="M131.57,214H112.92a1.83,1.83,0,0,1-1.84-1.83V128.25a1.84,1.84,0,0,1,1.84-1.84h18.65a1.83,1.83,0,0,1,1.83,1.84v83.89A1.83,1.83,0,0,1,131.57,214Zm-16.82-3.67h15V130.08h-15Z"/><rect class="cls-5_money-transfer-78 targetColor" x="38.93" y="123.53" width="76.33" height="97.4" style="fill: rgb(104, 225, 253);"/><path class="cls-2_money-transfer-78" d="M115.26,222.77H38.93a1.84,1.84,0,0,1-1.84-1.84v-97.4a1.84,1.84,0,0,1,1.84-1.84h76.33a1.84,1.84,0,0,1,1.83,1.84v97.4A1.83,1.83,0,0,1,115.26,222.77Zm-74.5-3.67h72.66V125.37H40.76Z"/><path class="cls-1_money-transfer-78" d="M153.71,188.25c1.75.59,20.39,18.65,33.79,23.89s45.44,23.28,54.18,14.55,8.74-18.05,0-23.29-38.45-24.47-43.11-36.7"/><path class="cls-2_money-transfer-78" d="M234.43,230.88c-10,0-24.74-6.75-37.23-12.47-4.09-1.87-7.62-3.48-10.37-4.56-10-3.9-22.63-14.59-29.43-20.32-1.94-1.64-3.94-3.33-4.42-3.6a1.76,1.76,0,0,1-1.09-2.29,1.91,1.91,0,0,1,2.4-1.13c.75.25,1.64,1,5.48,4.21,6.64,5.6,19,16,28.4,19.71,2.84,1.11,6.42,2.75,10.56,4.65,13.33,6.1,35.64,16.32,41.65,10.31,4.32-4.31,6.43-8.85,6-12.78-.37-3-2.31-5.66-5.6-7.64-1.56-.93-38.37-23.15-43.88-37.62a1.83,1.83,0,1,1,3.43-1.3c4.05,10.63,29.47,28,42.34,35.78,4.3,2.57,6.84,6.15,7.35,10.34.62,5.07-1.86,10.69-7,15.82C240.93,230,238,230.88,234.43,230.88Z"/></g><g id="hand-2_money-transfer-78"><path class="cls-1_money-transfer-78" d="M382.37,312.34s-38.57-12.59-45.95-17.7c-15-10.36-65.51-8.37-78.23-3.71s-14.92,8.6-7.88,14.42,40.18,6.56,40.76,11.8-48.25,11.21-57.78,9.47-41.56-23.31-47.39-21.56-13.25,7-9.83,16.31,37.37,38.64,49.34,43.7c26.65,11.26,154.52,14,154.52,14Z"/><path class="cls-2_money-transfer-78" d="M379.93,380.94h0c-5.24-.11-128.53-2.92-155.19-14.18C212.26,361.5,178,332.06,174.35,322a12.8,12.8,0,0,1,.27-10.49c2.65-5.29,8.4-7.5,10.76-8.21,3.7-1.11,12.44,3.48,26.38,11.07,8.76,4.77,17.82,9.7,21.87,10.44,9.92,1.82,50.56-3.93,55.4-7.68-1.76-1.4-10.84-2.94-16.95-4-9.4-1.59-19.13-3.23-22.94-6.39-2.23-1.84-5.14-4.7-4.55-8.15s4.48-6.29,13-9.4c12.85-4.71,64.15-7,79.91,3.92,7.08,4.9,45.09,17.34,45.47,17.47a1.82,1.82,0,0,1,1.26,1.81l-2.44,66.76A1.84,1.84,0,0,1,379.93,380.94ZM186.87,306.76a1.42,1.42,0,0,0-.44.06c-1.48.44-6.46,2.21-8.53,6.33a9.36,9.36,0,0,0-.11,7.59c3.07,8.35,36.05,37.44,48.34,42.63,24.31,10.28,136.37,13.46,152,13.86l2.33-63.58c-6.95-2.29-38.3-12.78-45.11-17.5-6.22-4.3-20.41-6.91-38.94-7.16-15.46-.22-31.26,1.33-37.62,3.67-8.36,3.06-10.38,5.26-10.61,6.57s1.64,3.36,3.27,4.71c3.05,2.52,12.7,4.15,21.22,5.6,13,2.19,19.77,3.52,20.2,7.41a3,3,0,0,1-1.11,2.61c-6.14,5.73-50.48,10.4-58.83,8.86-4.62-.85-13.53-5.7-23-10.83C202,313.23,190.12,306.76,186.87,306.76Z"/><rect class="cls-5_money-transfer-78 targetColor" x="372.81" y="296.96" width="87.88" height="97.4" transform="translate(833.49 691.31) rotate(-180)" style="fill: rgb(104, 225, 253);"/><path class="cls-2_money-transfer-78" d="M460.69,396.19H372.81a1.83,1.83,0,0,1-1.84-1.83V297a1.84,1.84,0,0,1,1.84-1.84h87.88a1.83,1.83,0,0,1,1.83,1.84v97.4A1.83,1.83,0,0,1,460.69,396.19Zm-86.05-3.67h84.21V298.79H374.64Z"/><path class="cls-2_money-transfer-78" d="M396.06,396.19a1.83,1.83,0,0,1-1.83-1.83V297a1.84,1.84,0,1,1,3.67,0v97.4A1.83,1.83,0,0,1,396.06,396.19Z"/></g></svg>